<svg xmlns="http://www.w3.org/2000/svg" width="582px" height="140px" viewBox="0 0 582 140"><path d="M31.9 108.8Q27.6 108.8 25.700000000000003 107.5Q23.8 106.2 23.3 104.1Q22.8 102.0 22.8 99.6V47.9Q22.8 45.699999999999996 23.200000000000003 43.599999999999994Q23.6 41.5 25.5 40.15Q27.4 38.8 32.0 38.89999999999999H49.2Q56.300000000000004 38.89999999999999 62.60000000000001 41.599999999999994Q68.9 44.3 73.75 49.05Q78.6 53.8 81.35 60.1Q84.10000000000001 66.4 84.10000000000001 73.5Q84.10000000000001 80.8 81.35 87.19999999999999Q78.6 93.6 73.75 98.44999999999999Q68.9 103.3 62.550000000000004 106.05Q56.2 108.8 48.900000000000006 108.8ZM41.1 90.5H49.2Q53.7 90.5 57.5 88.25Q61.300000000000004 86.0 63.55000000000001 82.25Q65.80000000000001 78.5 65.80000000000001 73.9Q65.80000000000001 69.3 63.55000000000001 65.5Q61.300000000000004 61.699999999999996 57.5 59.449999999999996Q53.7 57.199999999999996 49.1 57.199999999999996H41.1ZM121.1 110.0Q113.5 110.0 107.75 106.95Q102.0 103.9 98.1 98.9Q94.2 93.9 92.25 87.9Q90.3 81.9 90.3 76.0V48.0Q90.3 45.699999999999996 90.69999999999999 43.599999999999994Q91.1 41.5 93.0 40.15Q94.9 38.8 99.5 38.8Q104.1 38.8 106.0 40.15Q107.9 41.5 108.30000000000001 43.599999999999994Q108.7 45.699999999999996 108.7 48.099999999999994V76.0Q108.7 79.3 109.80000000000001 82.9Q110.9 86.5 113.65 89.05Q116.4 91.6 121.4 91.6Q125.2 91.6 128.0 89.65Q130.8 87.7 132.35000000000002 84.15Q133.9 80.6 133.9 75.9V47.5Q133.9 45.3 134.35000000000002 43.349999999999994Q134.8 41.39999999999999 136.7 40.099999999999994Q138.6 38.8 143.1 38.8Q147.7 38.8 149.55 40.199999999999996Q151.4 41.599999999999994 151.8 43.699999999999996Q152.2 45.8 152.2 48.099999999999994V76.2Q152.2 82.2 150.2 88.15Q148.2 94.1 144.25 99.05Q140.3 104.0 134.5 107.0Q128.7 110.0 121.1 110.0ZM184.1 109.9Q178.0 109.9 173.75 108.4Q169.5 106.9 166.8 104.85Q164.1 102.8 162.7 101.1Q161.3 99.4 161.0 99.0Q159.0 96.5 158.55 94.5Q158.1 92.5 159.14999999999998 90.5Q160.2 88.5 162.7 86.1Q165.0 83.9 167.2 83.65Q169.4 83.4 171.55 84.6Q173.7 85.8 175.7 88.1Q178.1 90.8 179.8 91.75Q181.5 92.7 183.7 92.7Q186.4 92.7 188.10000000000002 92.05000000000001Q189.8 91.4 190.60000000000002 90.05000000000001Q191.4 88.7 191.4 86.6Q191.4 84.9 189.7 83.95Q188.0 83.0 185.25 82.3Q182.5 81.6 179.1 80.75Q175.7 79.9 172.4 78.5Q170.4 77.7 168.5 76.5Q166.6 75.3 164.95 73.75Q163.3 72.19999999999999 162.10000000000002 70.05Q160.9 67.9 160.25 65.2Q159.6 62.5 159.6 59.099999999999994Q159.6 53.0 162.64999999999998 48.199999999999996Q165.7 43.39999999999999 171.05 40.599999999999994Q176.4 37.8 183.2 37.8Q188.1 37.8 191.6 38.599999999999994Q195.1 39.39999999999999 197.35 40.49999999999999Q199.6 41.599999999999994 200.8 42.55Q202.0 43.5 202.3 43.8Q205.6 46.8 205.89999999999998 48.949999999999996Q206.2 51.099999999999994 203.5 55.099999999999994Q200.5 59.4 197.6 59.95Q194.7 60.5 190.9 58.099999999999994Q190.1 57.5 189.3 56.75Q188.5 56.0 187.15 55.45Q185.8 54.9 183.1 54.9Q182.1 54.9 181.1 55.25Q180.1 55.599999999999994 179.39999999999998 56.14999999999999Q178.7 56.699999999999996 178.25 57.5Q177.8 58.3 177.8 59.199999999999996Q177.8 61.3 179.4 62.449999999999996Q181.0 63.599999999999994 183.65 64.19999999999999Q186.3 64.8 189.5 65.4Q192.7 66.0 196.0 67.0Q198.7 67.9 201.2 69.3Q203.7 70.69999999999999 205.6 72.89999999999999Q207.5 75.1 208.65 78.35Q209.8 81.6 209.8 86.3Q209.8 92.8 207.3 97.35Q204.8 101.9 200.85000000000002 104.65Q196.9 107.4 192.45 108.65Q188.0 109.9 184.1 109.9ZM266.2 108.8Q261.7 108.8 259.79999999999995 107.44999999999999Q257.9 106.1 257.5 103.94999999999999Q257.1 101.8 257.1 99.6V48.0Q257.1 45.8 257.5 43.699999999999996Q257.9 41.599999999999994 259.79999999999995 40.24999999999999Q261.7 38.89999999999999 266.3 38.89999999999999Q270.9 38.89999999999999 272.75 40.24999999999999Q274.6 41.599999999999994 275.0 43.699999999999996Q275.4 45.8 275.4 48.099999999999994V99.7Q275.4 101.9 275.0 104.0Q274.6 106.1 272.70000000000005 107.44999999999999Q270.8 108.8 266.2 108.8ZM225.1 108.8Q220.6 108.8 218.7 107.44999999999999Q216.79999999999998 106.1 216.39999999999998 103.94999999999999Q216.0 101.8 216.0 99.6V48.0Q216.0 45.8 216.39999999999998 43.699999999999996Q216.79999999999998 41.599999999999994 218.7 40.24999999999999Q220.6 38.89999999999999 225.2 38.89999999999999Q229.79999999999998 38.89999999999999 231.64999999999998 40.24999999999999Q233.5 41.599999999999994 233.89999999999998 43.699999999999996Q234.29999999999998 45.8 234.29999999999998 48.099999999999994V99.7Q234.29999999999998 101.9 233.89999999999998 104.0Q233.5 106.1 231.6 107.44999999999999Q229.7 108.8 225.1 108.8ZM232.7 81.7V66.1H258.7V81.7ZM292.09999999999997 108.9Q287.59999999999997 108.9 285.7 107.55000000000001Q283.8 106.2 283.4 104.05000000000001Q283.0 101.9 283.0 99.7V48.0Q283.0 45.8 283.4 43.699999999999996Q283.8 41.599999999999994 285.7 40.24999999999999Q287.59999999999997 38.89999999999999 292.2 38.89999999999999Q296.8 38.89999999999999 298.65 40.24999999999999Q300.5 41.599999999999994 300.9 43.699999999999996Q301.3 45.8 301.3 48.099999999999994V99.8Q301.3 102.0 300.9 104.1Q300.5 106.2 298.6 107.55000000000001Q296.7 108.9 292.09999999999997 108.9ZM360.59999999999997 108.8Q357.4 108.8 355.59999999999997 107.5Q353.79999999999995 106.2 353.0 104.65Q352.2 103.1 351.99999999999994 102.6L333.99999999999994 51.0Q332.49999999999994 46.0 333.54999999999995 43.55Q334.59999999999997 41.099999999999994 339.79999999999995 39.39999999999999Q343.2 38.3 345.29999999999995 38.4Q347.4 38.5 348.79999999999995 40.1Q350.2 41.7 351.29999999999995 45.099999999999994L361.7 75.5L369.9 45.599999999999994Q370.2 44.599999999999994 370.95 42.99999999999999Q371.7 41.39999999999999 373.5 40.14999999999999Q375.29999999999995 38.89999999999999 378.7 38.89999999999999Q382.5 38.89999999999999 384.35 40.3Q386.2 41.7 386.9 43.3Q387.59999999999997 44.9 387.9 45.699999999999996L396.09999999999997 75.69999999999999L406.5 45.099999999999994Q407.59999999999997 41.8 408.94999999999993 40.15Q410.29999999999995 38.5 412.5 38.3Q414.7 38.099999999999994 418.09999999999997 39.3Q421.7 40.599999999999994 423.2 42.05Q424.7 43.5 424.75 45.599999999999994Q424.79999999999995 47.699999999999996 423.79999999999995 51.0L405.9 102.6Q405.7 103.2 404.95 104.7Q404.2 106.2 402.4 107.5Q400.59999999999997 108.8 397.2 108.8Q393.79999999999995 108.8 391.9 107.25Q390.0 105.7 389.2 104.05000000000001Q388.4 102.4 388.29999999999995 102.1L378.9 71.3L369.49999999999994 102.0Q369.4 102.5 368.59999999999997 104.15Q367.79999999999995 105.8 365.94999999999993 107.3Q364.09999999999997 108.8 360.59999999999997 108.8ZM464.79999999999995 110.0Q457.5179487179487 110.0 451.1589743589743 107.25Q444.79999999999995 104.5 439.99999999999994 99.6Q435.19999999999993 94.7 432.44999999999993 88.26102941176471Q429.69999999999993 81.82205882352942 429.69999999999993 74.46323529411765Q429.69999999999993 66.9 432.35416666666663 60.285964912280704Q435.00833333333327 53.6719298245614 439.70416666666665 48.6859649122807Q444.4 43.7 450.6354406130268 40.9Q456.8708812260536 38.099999999999994 463.98237547892717 38.099999999999994Q471.29999999999995 38.099999999999994 477.6607407407407 40.83857142857143Q484.02148148148143 43.57714285714286 488.79203703703695 48.49642857142857Q493.5625925925925 53.41571428571428 496.2812962962962 59.95785714285714Q498.99999999999994 66.5 498.99999999999994 74.08974358974359Q498.99999999999994 81.47435897435898 496.3499999999999 87.98717948717949Q493.69999999999993 94.5 488.9698113207547 99.4640522875817Q484.2396226415094 104.4281045751634 478.0698113207547 107.2140522875817Q471.9 110.0 464.79999999999995 110.0ZM464.3009302325581 91.7Q467.69999999999993 91.7 470.69999999999993 90.35Q473.69999999999993 89.0 475.94999999999993 86.65Q478.19999999999993 84.3 479.44999999999993 81.0546255506608Q480.69999999999993 77.80925110132159 480.69999999999993 74.07400881057268Q480.69999999999993 70.4 479.4 67.2Q478.09999999999997 64.0 475.84999999999997 61.55Q473.59999999999997 59.099999999999994 470.6560747663551 57.75Q467.7121495327102 56.4 464.3560747663551 56.4Q460.99999999999994 56.4 458.04999999999995 57.75Q455.09999999999997 59.099999999999994 452.84999999999997 61.55Q450.59999999999997 64.0 449.29999999999995 67.21469298245614Q447.99999999999994 70.42938596491229 447.99999999999994 74.09473684210526Q447.99999999999994 77.7 449.3016666666666 80.91989247311828Q450.6033333333333 84.13978494623656 452.85166666666663 86.56989247311827Q455.09999999999997 89.0 458.03023255813946 90.35Q460.960465116279 91.7 464.3009302325581 91.7ZM515.5 108.9Q511.0 108.9 509.1 107.55000000000001Q507.2 106.2 506.79999999999995 104.05000000000001Q506.4 101.9 506.4 99.7V48.0Q506.4 45.8 506.79999999999995 43.699999999999996Q507.2 41.599999999999994 509.1 40.24999999999999Q511.0 38.89999999999999 515.6 38.89999999999999Q520.1999999999999 38.89999999999999 522.05 40.24999999999999Q523.9 41.599999999999994 524.3 43.699999999999996Q524.6999999999999 45.8 524.6999999999999 48.099999999999994V61.9L542.1 42.0Q544.4 39.5 546.4 38.5Q548.4 37.5 550.5 38.1Q552.6 38.7 555.1 41.099999999999994Q559.1999999999999 44.8 559.3 47.599999999999994Q559.4 50.4 556.0 54.0L536.4 74.0L556.1 93.7Q559.8 97.4 559.55 100.35Q559.3 103.3 555.1999999999999 106.7Q552.1999999999999 109.1 550.0999999999999 109.69999999999999Q548.0 110.3 546.2 109.25Q544.4 108.2 542.1999999999999 105.6L524.6999999999999 85.7V99.8Q524.6999999999999 102.0 524.3 104.1Q523.9 106.2 522.0 107.55000000000001Q520.1 108.9 515.5 108.9Z" fill="#0F7B6C"/><path fill="#FF5A4E" d="M464.3499999999999,55.356 C469.6303359999999,64.8468 479.0175999999999,71.7492 479.0175999999999,82.9656 C479.0175999999999,93.31920000000001 472.56385599999993,98.49600000000001 464.3499999999999,98.49600000000001 C456.1361439999999,98.49600000000001 449.6823999999999,93.31920000000001 449.6823999999999,82.9656 C449.6823999999999,75.2004 457.8962559999999,70.88640000000001 459.65636799999993,63.1212 C463.1765919999999,70.0236 464.9367039999999,72.612 466.1101119999999,74.33760000000001 C467.2835199999999,67.43520000000001 464.9367039999999,60.5328 464.3499999999999,55.356 Z"/></svg>
