<svg xmlns="http://www.w3.org/2000/svg" width="64.000" height="64.000" viewBox="0 0 64.000 64.000"><rect width="64" height="64" rx="14" fill="#2D3BE8"/><g transform="translate(32.000,32.000) scale(0.64611) translate(-55.300,-56.950)"><path d="M41.000,69.000 L41.229,68.996 L42.275,68.962 L42.428,68.955 L42.580,68.945 L42.733,68.932 L43.775,68.829 L43.926,68.813 L44.078,68.793 L44.229,68.770 L45.262,68.599 L45.412,68.573 L45.562,68.543 L45.711,68.510 L46.731,68.272 L46.879,68.236 L47.026,68.196 L47.173,68.153 L48.175,67.849 L48.321,67.804 L48.465,67.754 L48.609,67.702 L49.589,67.333 L49.731,67.278 L49.872,67.220 L50.012,67.158 L50.966,66.726 L51.104,66.661 L51.241,66.594 L51.376,66.523 L52.300,66.030 L52.434,65.956 L52.566,65.880 L52.696,65.801 L53.586,65.248 L53.714,65.166 L53.841,65.081 L53.966,64.993 L54.818,64.384 L54.941,64.293 L55.062,64.200 L55.181,64.105 L55.990,63.441 L56.107,63.342 L56.222,63.242 L56.335,63.138 L57.099,62.423 L57.209,62.317 L57.317,62.209 L57.423,62.099 L58.138,61.335 L58.242,61.222 L58.342,61.107 L58.441,60.990 L59.105,60.181 L59.200,60.062 L59.293,59.941 L59.384,59.818 L59.993,58.966 L60.081,58.841 L60.166,58.714 L60.248,58.586 L60.801,57.696 L60.880,57.566 L60.956,57.434 L61.030,57.300 L61.523,56.376 L61.594,56.241 L61.661,56.104 L61.726,55.966 L62.158,55.012 L62.220,54.872 L62.278,54.731 L62.333,54.589 L62.702,53.609 L62.754,53.465 L62.804,53.321 L62.849,53.175 L63.153,52.173 L63.196,52.026 L63.236,51.879 L63.272,51.731 L63.510,50.711 L63.543,50.562 L63.573,50.412 L63.599,50.262 L63.770,49.229 L63.793,49.078 L63.813,48.926 L63.829,48.775 L63.932,47.733 L63.945,47.580 L63.955,47.428 L63.962,47.275 L63.996,46.229 L64.000,46.076 L64.000,45.924 L63.996,45.771 L63.962,44.725 L63.955,44.572 L63.945,44.420 L63.932,44.267 L63.829,43.225 L63.813,43.074 L63.793,42.922 L63.770,42.771 L63.599,41.738 L63.573,41.588 L63.543,41.438 L63.510,41.289 L63.272,40.269 L63.236,40.121 L63.196,39.974 L63.153,39.827 L62.849,38.825 L62.804,38.679 L62.754,38.535 L62.702,38.391 L62.333,37.411 L62.278,37.269 L62.220,37.128 L62.158,36.988 L61.726,36.034 L61.661,35.896 L61.594,35.759 L61.523,35.624 L61.030,34.700 L60.956,34.566 L60.880,34.434 L60.801,34.304 L60.248,33.414 L60.166,33.286 L60.081,33.159 L59.993,33.034 L59.384,32.182 L59.293,32.059 L59.200,31.938 L59.105,31.819 L58.441,31.010 L58.342,30.893 L58.242,30.778 L58.138,30.665 L57.423,29.901 L57.317,29.791 L57.209,29.683 L57.099,29.577 L56.335,28.862 L56.222,28.758 L56.107,28.658 L55.990,28.559 L55.181,27.895 L55.062,27.800 L54.941,27.707 L54.818,27.616 L53.966,27.007 L53.841,26.919 L53.714,26.834 L53.586,26.752 L52.696,26.199 L52.566,26.120 L52.434,26.044 L52.300,25.970 L51.376,25.477 L51.241,25.406 L51.104,25.339 L50.966,25.274 L50.012,24.842 L49.872,24.780 L49.731,24.722 L49.589,24.667 L48.609,24.298 L48.465,24.246 L48.321,24.196 L48.175,24.151 L47.173,23.847 L47.026,23.804 L46.879,23.764 L46.731,23.728 L45.711,23.490 L45.562,23.457 L45.412,23.427 L45.262,23.401 L44.229,23.230 L44.078,23.207 L43.926,23.187 L43.775,23.171 L42.733,23.068 L42.580,23.055 L42.428,23.045 L42.275,23.038 L41.229,23.004 L41.000,23.000 L30.000,23.000 L29.828,23.002 L29.657,23.008 L29.485,23.019 L29.314,23.034 L29.143,23.053 L28.973,23.076 L28.803,23.103 L28.634,23.135 L28.466,23.170 L28.299,23.210 L28.133,23.254 L27.968,23.301 L27.804,23.353 L27.642,23.409 L27.481,23.469 L27.321,23.533 L27.254,23.562 L27.163,23.601 L27.007,23.672 L27.000,23.676 L26.853,23.747 L26.774,23.788 L26.700,23.827 L26.633,23.864 L26.550,23.909 L26.495,23.941 L26.401,23.996 L26.311,24.052 L26.255,24.086 L26.111,24.180 L25.969,24.277 L25.931,24.305 L25.830,24.378 L25.693,24.482 L25.679,24.493 L25.559,24.589 L25.428,24.700 L25.299,24.813 L25.238,24.870 L25.173,24.930 L25.050,25.050 L25.050,25.050 L25.050,25.050 L24.930,25.173 L24.813,25.299 L24.700,25.428 L24.589,25.559 L24.482,25.693 L24.378,25.830 L24.277,25.969 L24.180,26.111 L24.086,26.255 L24.052,26.311 L23.996,26.401 L23.909,26.550 L23.827,26.700 L23.788,26.774 L23.747,26.853 L23.672,27.007 L23.601,27.163 L23.533,27.321 L23.487,27.435 L23.469,27.481 L23.409,27.642 L23.353,27.804 L23.301,27.968 L23.254,28.133 L23.210,28.299 L23.170,28.466 L23.135,28.634 L23.103,28.803 L23.076,28.973 L23.053,29.143 L23.034,29.314 L23.019,29.485 L23.008,29.657 L23.002,29.828 L23.000,30.000 L23.000,62.000 L23.000,84.000 L23.002,84.172 L23.008,84.343 L23.019,84.515 L23.034,84.686 L23.053,84.857 L23.076,85.027 L23.103,85.197 L23.135,85.366 L23.170,85.534 L23.210,85.701 L23.254,85.867 L23.301,86.032 L23.353,86.196 L23.409,86.358 L23.469,86.519 L23.533,86.679 L23.601,86.837 L23.672,86.993 L23.747,87.147 L23.827,87.300 L23.909,87.450 L23.996,87.599 L24.086,87.745 L24.180,87.889 L24.277,88.031 L24.378,88.170 L24.482,88.307 L24.589,88.441 L24.700,88.572 L24.813,88.701 L24.930,88.827 L25.050,88.950 L25.173,89.070 L25.299,89.187 L25.428,89.300 L25.559,89.411 L25.693,89.518 L25.830,89.622 L25.969,89.723 L26.111,89.820 L26.255,89.914 L26.401,90.004 L26.550,90.091 L26.700,90.173 L26.853,90.253 L27.007,90.328 L27.163,90.399 L27.321,90.467 L27.481,90.531 L27.642,90.591 L27.804,90.647 L27.968,90.699 L28.133,90.746 L28.299,90.790 L28.466,90.830 L28.634,90.865 L28.803,90.897 L28.973,90.924 L29.143,90.947 L29.314,90.966 L29.485,90.981 L29.657,90.992 L29.828,90.998 L30.000,91.000 L30.172,90.998 L30.343,90.992 L30.515,90.981 L30.686,90.966 L30.857,90.947 L31.027,90.924 L31.197,90.897 L31.366,90.865 L31.534,90.830 L31.701,90.790 L31.867,90.746 L32.032,90.699 L32.196,90.647 L32.358,90.591 L32.519,90.531 L32.679,90.467 L32.837,90.399 L32.993,90.328 L33.147,90.253 L33.300,90.173 L33.450,90.091 L33.599,90.004 L33.745,89.914 L33.889,89.820 L34.031,89.723 L34.170,89.622 L34.307,89.518 L34.441,89.411 L34.572,89.300 L34.701,89.187 L34.827,89.070 L34.950,88.950 L35.070,88.827 L35.187,88.701 L35.300,88.572 L35.411,88.441 L35.518,88.307 L35.622,88.170 L35.723,88.031 L35.820,87.889 L35.914,87.745 L36.004,87.599 L36.091,87.450 L36.173,87.300 L36.253,87.147 L36.328,86.993 L36.399,86.837 L36.467,86.679 L36.531,86.519 L36.591,86.358 L36.647,86.196 L36.699,86.032 L36.746,85.867 L36.790,85.701 L36.830,85.534 L36.865,85.366 L36.897,85.197 L36.924,85.027 L36.947,84.857 L36.966,84.686 L36.981,84.515 L36.992,84.343 L36.998,84.172 L37.000,84.000 L37.000,69.000ZM41.588,37.023 L42.174,37.081 L42.755,37.177 L43.328,37.310 L43.892,37.481 L44.443,37.689 L44.979,37.932 L45.498,38.209 L45.998,38.520 L46.477,38.863 L46.932,39.236 L47.361,39.639 L47.764,40.068 L48.137,40.523 L48.480,41.002 L48.791,41.502 L49.068,42.021 L49.311,42.557 L49.519,43.108 L49.690,43.672 L49.823,44.245 L49.919,44.826 L49.977,45.412 L49.996,46.000 L49.977,46.588 L49.919,47.174 L49.823,47.755 L49.690,48.328 L49.519,48.892 L49.311,49.443 L49.068,49.979 L48.791,50.498 L48.480,50.998 L48.137,51.477 L47.764,51.932 L47.361,52.361 L46.932,52.764 L46.477,53.137 L45.998,53.480 L45.498,53.791 L44.979,54.068 L44.443,54.311 L43.892,54.519 L43.328,54.690 L42.755,54.823 L42.174,54.919 L41.588,54.977 L40.885,55.000 L37.000,55.000 L37.000,37.000 L40.885,37.000ZM85.992,49.657 L85.981,49.485 L85.966,49.314 L85.947,49.143 L85.924,48.973 L85.897,48.803 L85.865,48.634 L85.830,48.466 L85.790,48.299 L85.746,48.133 L85.699,47.968 L85.647,47.804 L85.591,47.642 L85.531,47.481 L85.467,47.321 L85.399,47.163 L85.328,47.007 L85.253,46.853 L85.173,46.700 L85.091,46.550 L85.004,46.401 L84.914,46.255 L84.820,46.111 L84.723,45.969 L84.622,45.830 L84.518,45.693 L84.411,45.559 L84.300,45.428 L84.187,45.299 L84.070,45.173 L83.950,45.050 L83.827,44.930 L83.701,44.813 L83.572,44.700 L83.441,44.589 L83.307,44.482 L83.170,44.378 L83.031,44.277 L82.889,44.180 L82.745,44.086 L82.599,43.996 L82.450,43.909 L82.300,43.827 L82.147,43.747 L81.993,43.672 L81.837,43.601 L81.679,43.533 L81.519,43.469 L81.358,43.409 L81.196,43.353 L81.032,43.301 L80.867,43.254 L80.701,43.210 L80.534,43.170 L80.366,43.135 L80.197,43.103 L80.027,43.076 L79.857,43.053 L79.686,43.034 L79.515,43.019 L79.343,43.008 L79.172,43.002 L79.000,43.000 L78.828,43.002 L78.657,43.008 L78.485,43.019 L78.314,43.034 L78.143,43.053 L77.973,43.076 L77.803,43.103 L77.634,43.135 L77.466,43.170 L77.299,43.210 L77.133,43.254 L76.968,43.301 L76.804,43.353 L76.642,43.409 L76.481,43.469 L76.321,43.533 L76.163,43.601 L76.007,43.672 L75.853,43.747 L75.700,43.827 L75.550,43.909 L75.401,43.996 L75.255,44.086 L75.111,44.180 L74.969,44.277 L74.830,44.378 L74.693,44.482 L74.559,44.589 L74.428,44.700 L74.299,44.813 L74.173,44.930 L74.050,45.050 L73.930,45.173 L73.813,45.299 L73.700,45.428 L73.589,45.559 L73.482,45.693 L73.378,45.830 L73.277,45.969 L73.180,46.111 L73.086,46.255 L72.996,46.401 L72.909,46.550 L72.827,46.700 L72.747,46.853 L72.672,47.007 L72.601,47.163 L72.533,47.321 L72.469,47.481 L72.409,47.642 L72.353,47.804 L72.301,47.968 L72.254,48.133 L72.210,48.299 L72.170,48.466 L72.135,48.634 L72.103,48.803 L72.076,48.973 L72.053,49.143 L72.034,49.314 L72.019,49.485 L72.008,49.657 L72.002,49.828 L72.000,50.000 L72.000,84.000 L72.002,84.172 L72.008,84.343 L72.019,84.515 L72.034,84.686 L72.053,84.857 L72.076,85.027 L72.103,85.197 L72.135,85.366 L72.170,85.534 L72.210,85.701 L72.254,85.867 L72.301,86.032 L72.353,86.196 L72.409,86.358 L72.469,86.519 L72.533,86.679 L72.601,86.837 L72.672,86.993 L72.747,87.147 L72.827,87.300 L72.909,87.450 L72.996,87.599 L73.086,87.745 L73.180,87.889 L73.277,88.031 L73.378,88.170 L73.482,88.307 L73.589,88.441 L73.700,88.572 L73.813,88.701 L73.930,88.827 L74.050,88.950 L74.173,89.070 L74.299,89.187 L74.428,89.300 L74.559,89.411 L74.693,89.518 L74.830,89.622 L74.969,89.723 L75.111,89.820 L75.255,89.914 L75.401,90.004 L75.550,90.091 L75.700,90.173 L75.853,90.253 L76.007,90.328 L76.163,90.399 L76.321,90.467 L76.481,90.531 L76.642,90.591 L76.804,90.647 L76.968,90.699 L77.133,90.746 L77.299,90.790 L77.466,90.830 L77.634,90.865 L77.803,90.897 L77.973,90.924 L78.143,90.947 L78.314,90.966 L78.485,90.981 L78.657,90.992 L78.828,90.998 L79.000,91.000 L79.172,90.998 L79.343,90.992 L79.515,90.981 L79.686,90.966 L79.857,90.947 L80.027,90.924 L80.197,90.897 L80.366,90.865 L80.534,90.830 L80.701,90.790 L80.867,90.746 L81.032,90.699 L81.196,90.647 L81.358,90.591 L81.519,90.531 L81.679,90.467 L81.837,90.399 L81.993,90.328 L82.147,90.253 L82.300,90.173 L82.450,90.091 L82.599,90.004 L82.745,89.914 L82.889,89.820 L83.031,89.723 L83.170,89.622 L83.307,89.518 L83.441,89.411 L83.572,89.300 L83.701,89.187 L83.827,89.070 L83.950,88.950 L84.070,88.827 L84.187,88.701 L84.300,88.572 L84.411,88.441 L84.518,88.307 L84.622,88.170 L84.723,88.031 L84.820,87.889 L84.914,87.745 L85.004,87.599 L85.091,87.450 L85.173,87.300 L85.253,87.147 L85.328,86.993 L85.399,86.837 L85.467,86.679 L85.531,86.519 L85.591,86.358 L85.647,86.196 L85.699,86.032 L85.746,85.867 L85.790,85.701 L85.830,85.534 L85.865,85.366 L85.897,85.197 L85.924,85.027 L85.947,84.857 L85.966,84.686 L85.981,84.515 L85.992,84.343 L85.998,84.172 L86.000,84.000 L86.000,50.000 L85.998,49.828Z" fill="#FFFFFF"/><path d="M87.600,31.500 L87.597,31.289 L87.590,31.078 L87.577,30.867 L87.559,30.657 L87.535,30.447 L87.507,30.238 L87.473,30.030 L87.435,29.822 L87.391,29.616 L87.342,29.410 L87.288,29.206 L87.230,29.004 L87.166,28.802 L87.097,28.603 L87.024,28.405 L86.945,28.209 L86.862,28.015 L86.774,27.823 L86.682,27.633 L86.585,27.446 L86.483,27.261 L86.376,27.079 L86.266,26.899 L86.151,26.722 L86.031,26.548 L85.908,26.377 L85.780,26.209 L85.648,26.044 L85.512,25.883 L85.372,25.725 L85.229,25.570 L85.081,25.419 L84.930,25.271 L84.775,25.128 L84.617,24.988 L84.456,24.852 L84.291,24.720 L84.123,24.592 L83.952,24.469 L83.778,24.349 L83.601,24.234 L83.421,24.124 L83.239,24.017 L83.054,23.915 L82.867,23.818 L82.677,23.726 L82.485,23.638 L82.291,23.555 L82.095,23.476 L81.897,23.403 L81.698,23.334 L81.496,23.270 L81.294,23.212 L81.090,23.158 L80.884,23.109 L80.678,23.065 L80.470,23.027 L80.262,22.993 L80.053,22.965 L79.843,22.941 L79.633,22.923 L79.422,22.910 L79.211,22.903 L79.000,22.900 L78.789,22.903 L78.578,22.910 L78.367,22.923 L78.157,22.941 L77.947,22.965 L77.738,22.993 L77.530,23.027 L77.322,23.065 L77.116,23.109 L76.910,23.158 L76.706,23.212 L76.504,23.270 L76.302,23.334 L76.103,23.403 L75.905,23.476 L75.709,23.555 L75.515,23.638 L75.323,23.726 L75.133,23.818 L74.946,23.915 L74.761,24.017 L74.579,24.124 L74.399,24.234 L74.222,24.349 L74.048,24.469 L73.877,24.592 L73.709,24.720 L73.544,24.852 L73.383,24.988 L73.225,25.128 L73.070,25.271 L72.919,25.419 L72.771,25.570 L72.628,25.725 L72.488,25.883 L72.352,26.044 L72.220,26.209 L72.092,26.377 L71.969,26.548 L71.849,26.722 L71.734,26.899 L71.624,27.079 L71.517,27.261 L71.415,27.446 L71.318,27.633 L71.226,27.823 L71.138,28.015 L71.055,28.209 L70.976,28.405 L70.903,28.603 L70.834,28.802 L70.770,29.004 L70.712,29.206 L70.658,29.410 L70.609,29.616 L70.565,29.822 L70.527,30.030 L70.493,30.238 L70.465,30.447 L70.441,30.657 L70.423,30.867 L70.410,31.078 L70.403,31.289 L70.400,31.500 L70.403,31.711 L70.410,31.922 L70.423,32.133 L70.441,32.343 L70.465,32.553 L70.493,32.762 L70.527,32.970 L70.565,33.178 L70.609,33.384 L70.658,33.590 L70.712,33.794 L70.770,33.996 L70.834,34.198 L70.903,34.397 L70.976,34.595 L71.055,34.791 L71.138,34.985 L71.226,35.177 L71.318,35.367 L71.415,35.554 L71.517,35.739 L71.624,35.921 L71.734,36.101 L71.849,36.278 L71.969,36.452 L72.092,36.623 L72.220,36.791 L72.352,36.956 L72.488,37.117 L72.628,37.275 L72.771,37.430 L72.919,37.581 L73.070,37.729 L73.225,37.872 L73.383,38.012 L73.544,38.148 L73.709,38.280 L73.877,38.408 L74.048,38.531 L74.222,38.651 L74.399,38.766 L74.579,38.876 L74.761,38.983 L74.946,39.085 L75.133,39.182 L75.323,39.274 L75.515,39.362 L75.709,39.445 L75.905,39.524 L76.103,39.597 L76.302,39.666 L76.504,39.730 L76.706,39.788 L76.910,39.842 L77.116,39.891 L77.322,39.935 L77.530,39.973 L77.738,40.007 L77.947,40.035 L78.157,40.059 L78.367,40.077 L78.578,40.090 L78.789,40.097 L79.000,40.100 L79.211,40.097 L79.422,40.090 L79.633,40.077 L79.843,40.059 L80.053,40.035 L80.262,40.007 L80.470,39.973 L80.678,39.935 L80.884,39.891 L81.090,39.842 L81.294,39.788 L81.496,39.730 L81.698,39.666 L81.897,39.597 L82.095,39.524 L82.291,39.445 L82.485,39.362 L82.677,39.274 L82.867,39.182 L83.054,39.085 L83.239,38.983 L83.421,38.876 L83.601,38.766 L83.778,38.651 L83.952,38.531 L84.123,38.408 L84.291,38.280 L84.456,38.148 L84.617,38.012 L84.775,37.872 L84.930,37.729 L85.081,37.581 L85.229,37.430 L85.372,37.275 L85.512,37.117 L85.648,36.956 L85.780,36.791 L85.908,36.623 L86.031,36.452 L86.151,36.278 L86.266,36.101 L86.376,35.921 L86.483,35.739 L86.585,35.554 L86.682,35.367 L86.774,35.177 L86.862,34.985 L86.945,34.791 L87.024,34.595 L87.097,34.397 L87.166,34.198 L87.230,33.996 L87.288,33.794 L87.342,33.590 L87.391,33.384 L87.435,33.178 L87.473,32.970 L87.507,32.762 L87.535,32.553 L87.559,32.343 L87.577,32.133 L87.590,31.922 L87.597,31.711Z" fill="#FFB38A"/></g></svg>
