<svg xmlns="http://www.w3.org/2000/svg" width="788.636" height="485.973" viewBox="0 0 788.636 485.973" role="img" aria-label="Pidi"><path d="M128.63636363636363 336.7909090909091V278.6090909090909H175.0Q199.0909090909091 278.6090909090909 210.6818181818182 266.7909090909091Q222.27272727272728 254.97272727272727 222.27272727272728 227.70000000000002Q222.27272727272728 202.70000000000002 211.36363636363637 190.42727272727274Q200.45454545454547 178.15454545454546 178.63636363636363 178.15454545454546H128.63636363636363V119.9727272727273H184.09090909090912Q206.36363636363637 119.9727272727273 226.8181818181818 126.10909090909092Q247.27272727272728 132.24545454545455 263.1818181818182 145.42727272727274Q279.0909090909091 158.60909090909092 288.1818181818182 179.06363636363636Q297.27272727272725 199.51818181818183 297.27272727272725 228.15454545454546Q297.27272727272725 264.06363636363636 282.04545454545456 288.3818181818182Q266.81818181818187 312.70000000000005 238.18181818181822 324.74545454545455Q209.54545454545456 336.7909090909091 169.0909090909091 336.7909090909091ZM75.45454545454545 419.9727272727273V119.9727272727273H147.72727272727275V419.9727272727273ZM312.2727272727273 419.9727272727273V179.97272727272727H384.5454545454546V419.9727272727273ZM485.45454545454555 425.88181818181823Q461.3636363636365 425.88181818181823 442.72727272727286 411.5636363636364Q424.0909090909092 397.24545454545455 413.409090909091 368.83636363636367Q402.7272727272728 340.42727272727274 402.7272727272728 298.1545454545455Q402.7272727272728 256.33636363636367 412.9545454545455 228.83636363636367Q423.18181818181824 201.33636363636364 440.909090909091 187.7Q458.63636363636374 174.06363636363636 482.27272727272737 174.06363636363636Q500.909090909091 174.06363636363636 515.2272727272727 183.15454545454546Q529.5454545454546 192.24545454545455 538.409090909091 210.65454545454546Q547.2727272727274 229.06363636363636 551.3636363636365 257.24545454545455H555.4545454545455Q553.1818181818182 241.7909090909091 550.909090909091 227.01818181818183Q548.6363636363637 212.24545454545455 547.5000000000001 198.60909090909092Q546.3636363636365 184.97272727272727 546.3636363636365 173.15454545454546V104.5181818181818H618.6363636363637V326.33636363636367V419.9727272727273H555.909090909091V347.70000000000005H552.7272727272729Q548.6363636363637 374.51818181818186 539.5454545454546 392.01818181818186Q530.4545454545455 409.51818181818186 517.0454545454546 417.70000000000005Q503.63636363636374 425.88181818181823 485.45454545454555 425.88181818181823ZM510.0000000000001 369.51818181818186Q517.2727272727274 369.51818181818186 524.0909090909092 365.20000000000005Q530.909090909091 360.8818181818182 535.909090909091 352.7Q540.909090909091 344.5181818181818 543.8636363636365 332.7Q546.818181818182 320.8818181818182 546.818181818182 305.8818181818182V300.8818181818182Q546.818181818182 287.70000000000005 544.7727272727275 277.01818181818186Q542.7272727272729 266.33636363636367 539.0909090909092 258.6090909090909Q535.4545454545455 250.8818181818182 530.6818181818182 245.65454545454548Q525.909090909091 240.42727272727274 520.4545454545455 237.92727272727274Q515.0000000000001 235.42727272727274 509.5454545454546 235.42727272727274Q498.63636363636374 235.42727272727274 491.13636363636374 244.06363636363636Q483.63636363636374 252.70000000000002 480.0000000000001 267.92727272727274Q476.3636363636365 283.1545454545454 476.3636363636365 303.1545454545455Q476.3636363636365 321.7909090909091 480.22727272727286 337.0181818181818Q484.0909090909092 352.24545454545455 491.5909090909092 360.8818181818182Q499.0909090909092 369.51818181818186 510.0000000000001 369.51818181818186ZM642.2727272727274 419.9727272727273V179.97272727272727H714.5454545454546V419.9727272727273Z" fill="#FFFFFF"/><circle cx="348.409" cy="104.809" r="44.809" fill="#FFB38A"/><circle cx="678.409" cy="104.809" r="44.809" fill="#FFB38A"/></svg>
